<?xml version="1.0" encoding="utf-8"?>
<!-- Generator: Adobe Illustrator 16.0.0, SVG Export Plug-In . SVG Version: 6.00 Build 0)  -->
<!DOCTYPE svg PUBLIC "-//W3C//DTD SVG 1.1//EN" "http://www.w3.org/Graphics/SVG/1.1/DTD/svg11.dtd">
<svg version="1.1" id="ƒŒƒCƒ_x201E__x5B__x5F_1"
	 xmlns="http://www.w3.org/2000/svg" xmlns:xlink="http://www.w3.org/1999/xlink" x="0px" y="0px" width="800px" height="453.299px"
	 viewBox="0 0 800 453.299" enable-background="new 0 0 800 453.299" xml:space="preserve">
<g>
	<g>
		<path fill="#2C76A7" d="M792.065,366.38c3.106,3.346,4.653,7.402,4.653,12.136c0,4.771-1.547,8.854-4.653,12.216
			c-3.106,3.36-6.88,5.03-11.312,5.03c-4.453,0-8.203-1.67-11.309-5.03c-3.104-3.361-4.618-7.444-4.618-12.216
			c0-4.733,1.522-8.79,4.664-12.136c3.103-3.353,6.858-5.037,11.263-5.037C785.149,361.343,788.959,363.028,792.065,366.38
			L792.065,366.38L792.065,366.38z M793.906,364.444c-3.586-3.843-7.992-5.803-13.152-5.803c-5.109,0-9.466,1.96-13.076,5.803
			c-3.625,3.901-5.441,8.583-5.441,14.072c0,5.544,1.794,10.241,5.384,14.115c3.606,3.936,8.012,5.873,13.134,5.873
			c5.16,0,9.566-1.938,13.152-5.873c3.644-3.89,5.46-8.6,5.46-14.115C799.366,373.027,797.55,368.332,793.906,364.444
			L793.906,364.444L793.906,364.444z M783.521,377.588c-0.765,0.333-1.908,0.503-3.433,0.503h-3.224v-7.936h3.057
			c1.983,0,3.445,0.266,4.322,0.824c0.905,0.533,1.35,1.607,1.35,3.203C785.594,375.848,784.904,377.005,783.521,377.588
			L783.521,377.588L783.521,377.588z M773.255,389.399h3.61v-8.618h2.81c1.914,0,3.238,0.222,4.01,0.693
			c1.288,0.811,1.909,2.488,1.909,5.033v1.723l0.094,0.69c0.027,0.114,0.039,0.185,0.063,0.253c0,0.086,0.023,0.162,0.046,0.226
			h3.337l-0.104-0.278c-0.07-0.2-0.139-0.538-0.188-1.143c-0.021-0.584-0.044-1.132-0.044-1.6v-1.631
			c0-1.103-0.355-2.228-1.126-3.383c-0.727-1.138-1.897-1.891-3.508-2.143c1.277-0.213,2.253-0.555,2.955-1.063
			c1.323-0.938,1.994-2.351,1.994-4.304c0-2.771-1.045-4.61-3.142-5.551c-1.205-0.518-3.058-0.783-5.567-0.783h-7.148V389.399
			L773.255,389.399L773.255,389.399z"/>
		<g>
			<polygon fill="#2C76A7" points="772.908,453.299 745.483,453.299 726.074,396.012 725.914,396.012 725.914,453.299 
				699.807,453.299 699.807,311.625 725.914,311.625 725.914,363.957 726.074,363.957 744.985,311.625 772.164,311.625 
				746.559,376.889 772.908,453.299 772.908,453.299 			"/>
			<path fill="#2C76A7" d="M692.326,452.239c-3.139,1.417-8.423,2.39-14.041,2.39c-29.249,0-39.574-18.329-39.574-73.58
				c0-53.658,11.157-71.196,39.574-71.196c6.776,0,11.065,1.245,13.874,2.482v26.212c-1.816-1.41-4.952-2.832-10.568-2.832
				c-11.563,0-16.522,6.193-16.522,44.973c0,43.567,4.959,48.529,17.008,48.529c3.474,0,7.441-1.065,10.25-2.657V452.239
				L692.326,452.239L692.326,452.239z"/>
			<polygon fill="#2C76A7" points="557.943,338.195 538.132,338.195 538.132,453.299 512.189,453.299 512.189,338.195 
				494.448,338.195 494.448,311.625 557.943,311.625 557.943,338.195 557.943,338.195 			"/>
			<polygon fill="#2C76A7" points="426.382,453.299 405.563,453.299 380.031,386.454 379.862,386.454 379.686,386.454 
				379.686,453.299 355.034,453.299 355.034,311.625 375.598,311.625 401.206,373.881 401.383,373.881 401.383,311.625 
				426.382,311.625 426.382,453.299 426.382,453.299 			"/>
			<polygon fill="#2C76A7" points="340.888,453.299 278.795,453.299 278.795,311.625 340.888,311.625 340.888,338.195 
				304.737,338.195 304.737,365.822 340.057,365.822 340.057,392.38 304.737,392.38 304.737,426.917 340.888,426.917 
				340.888,453.299 340.888,453.299 			"/>
			<polygon fill="#2C76A7" points="271.947,453.299 244.528,453.299 225.118,396.012 224.947,396.012 224.947,453.299 
				198.849,453.299 198.849,311.625 224.947,311.625 224.947,363.957 225.118,363.957 244.03,311.625 271.208,311.625 
				245.606,376.889 271.947,453.299 271.947,453.299 			"/>
			<polygon fill="#2C76A7" points="106.696,453.299 80.754,453.299 80.754,311.625 106.696,311.625 106.696,453.299 
				106.696,453.299 			"/>
			<path fill="#2C76A7" d="M631.51,380.687c0,55.259-8.427,74.028-37.34,74.028c-27.428,0-36.515-18.416-36.515-73.572
				c0-52.873,9.087-71.466,37.005-71.466C623.083,309.677,631.51,329.341,631.51,380.687L631.51,380.687L631.51,380.687z
				 M605.245,380.52c0-39.143-3.304-45.517-10.741-45.517c-7.851,0-10.577,7.084-10.577,46.14c0,41.518,2.483,48.158,10.733,48.158
				C602.598,429.301,605.245,423.19,605.245,380.52L605.245,380.52L605.245,380.52z"/>
			<path fill="#2C76A7" d="M192.846,453.299h-25.932l-18.174-59.498h-0.33v59.498h-25.943V311.625h39.077
				c19.829,0,29.572,11.16,29.572,41.266c0,24.254-6.111,33.826-18.252,38.603L192.846,453.299L192.846,453.299L192.846,453.299z
				 M164.931,354.123c0-12.745-1.652-16.637-6.613-16.637h-9.908v32.85h9.417C161.959,370.335,164.931,366.962,164.931,354.123
				L164.931,354.123L164.931,354.123z"/>
			<path fill="#2C76A7" d="M68.94,413.278c0,31.167-6.941,40.021-29.404,40.021H-1.355V311.625h42.293
				c19.165,0,27.593,6.381,27.593,35.775c0,17.247-1.655,26.035-10.411,30.817v0.172C66.708,382.995,68.94,389.015,68.94,413.278
				L68.94,413.278L68.94,413.278z M42.341,351.647c0-11.329-2.9-14.161-6.274-14.161H24.582v30.185h10.49
				C39.946,367.67,42.341,365.644,42.341,351.647L42.341,351.647L42.341,351.647z M43.169,409.736
				c0-15.412-2.806-18.413-7.433-18.413H24.582v36.299h10.49C40.363,427.622,43.169,424.611,43.169,409.736L43.169,409.736
				L43.169,409.736z"/>
			<path fill="#2C76A7" d="M479.227,371.361c-14.569-14.174-15.538-18.325-15.538-24.258c0-7.087,4.13-11.249,13.381-11.249
				c5.062,0,8.802,0.963,11.089,1.824v-25.755c-2.753-1.02-7.411-2.101-14.064-2.101c-21.64,0-37.085,12.569-37.085,36.745
				c0,15.848,5.526,26.321,18.925,39.755c15.35,15.411,19.074,20.72,19.074,28.772c0,9.125-5.369,14.348-16.188,14.348
				c-9.75,0-16.363-4.158-19.915-7.001v26.928c4.464,2.304,10.326,4.778,23.387,4.778c21.718,0,38.24-14.703,38.24-39.494
				C500.531,399.423,495.324,387.036,479.227,371.361z"/>
		</g>
	</g>
	<g>
		<g>
			<path fill="#2A76A7" d="M274.61,131.487c0,68.37,55.807,123.991,124.403,123.991c68.587,0,124.389-55.622,124.389-123.991
				C523.402,63.12,467.601,7.5,399.013,7.5C330.417,7.5,274.61,63.12,274.61,131.487z M277.383,131.487
				c0-66.843,54.563-121.224,121.63-121.224c67.058,0,121.614,54.381,121.614,121.224c0,66.845-54.556,121.228-121.614,121.228
				C331.946,252.715,277.383,198.332,277.383,131.487z"/>
		</g>
		<path fill="#2A76A7" d="M496.48,131.484c0,53.663-43.638,97.163-97.467,97.163c-53.846,0-97.485-43.5-97.485-97.163
			c0-53.659,43.639-97.154,97.485-97.154C452.843,34.33,496.48,77.825,496.48,131.484z"/>
		<polygon fill="#FFDE4A" points="463.174,171.032 451.365,171.032 451.365,159.266 432.488,159.266 432.488,171.032 
			420.686,171.032 420.686,189.848 432.488,189.848 432.488,201.618 451.365,201.618 451.365,189.848 463.174,189.848 		"/>
		<g>
			<g>
				<g>
					<path fill="#2A76A7" enable-background="new    " d="M282.903,140.039l14.83-0.073l0.035,0.235l-11.05,7.636l12.78,4.079
						l0.034,0.235l-14.219,4.208l-0.211-1.428l10.181-2.94l-11.145-3.593l-0.054-0.365l9.702-6.724l-10.675,0.128L282.903,140.039z"
						/>
					<path fill="#2A76A7" d="M297.729,139.197l-14.829,0.074c-0.224,0.001-0.435,0.099-0.581,0.267
						c-0.145,0.169-0.21,0.394-0.178,0.612l0.207,1.398c0.055,0.381,0.386,0.661,0.771,0.657c0,0,5.229-0.063,8.166-0.098
						c-2.556,1.771-7.642,5.295-7.642,5.295c-0.208,0.144-0.33,0.381-0.33,0.63c0,0.038,0.003,0.075,0.008,0.113l0.054,0.364
						c0.043,0.29,0.246,0.528,0.525,0.618c0,0,5.803,1.872,8.754,2.822c-2.81,0.811-7.767,2.244-7.767,2.244
						c-0.333,0.096-0.556,0.401-0.556,0.738c0,0.037,0.003,0.075,0.008,0.113l0.211,1.428c0.032,0.22,0.159,0.416,0.348,0.536
						c0.188,0.118,0.42,0.151,0.634,0.088l14.219-4.208c0.331-0.098,0.551-0.401,0.551-0.737c0-0.036-0.003-0.073-0.008-0.111
						l-0.034-0.235c-0.043-0.291-0.247-0.53-0.527-0.62c0,0-8.969-2.862-11.292-3.604c2.007-1.386,9.766-6.748,9.766-6.748
						c0.21-0.146,0.333-0.382,0.333-0.632c0-0.037-0.003-0.073-0.008-0.11l-0.035-0.235
						C298.439,139.475,298.113,139.196,297.729,139.197z M295.629,140.744c-0.317,0.218-0.746,0.516-1.22,0.843
						c0.044-0.098,0.146-0.169,0.146-0.278c0-0.078-0.012-0.157-0.037-0.234c-0.062-0.193-0.274-0.23-0.444-0.323
						C294.652,140.749,295.25,140.745,295.629,140.744z M286.08,147.584c-0.037,0.09-0.132,0.153-0.132,0.252
						c0,0.037,0.003,0.075,0.008,0.113c0.022,0.146,0.174,0.205,0.267,0.313c-0.212-0.067-0.631-0.203-0.766-0.246
						C285.565,147.941,285.912,147.701,286.08,147.584z M296.052,152.002c0-0.004,0-0.007,0-0.012c0-0.219-0.196-0.337-0.35-0.48
						c0.636,0.203,1.168,0.373,1.583,0.506c-0.394,0.116-0.995,0.294-1.606,0.475C295.845,152.35,296.049,152.229,296.052,152.002z"
						/>
				</g>
				<g>
					<path fill="#2A76A7" enable-background="new    " d="M305.396,170.445l-10.952,11.895l-0.602-1.455l3.584-3.96l-2.417-5.827
						l-5.341-0.275l-0.624-1.508l16.213,0.799L305.396,170.445z M302.449,171.464l-5.879-0.298l1.918,4.623L302.449,171.464z"/>
					<path fill="#2A76A7" d="M288.415,168.873c-0.092,0.132-0.141,0.286-0.141,0.442c0,0.099,0.019,0.198,0.058,0.292l0.624,1.508
						c0.114,0.274,0.376,0.459,0.673,0.474c0,0,4.052,0.21,4.855,0.252c0.291,0.7,1.754,4.231,2.045,4.93
						c-0.539,0.595-3.259,3.601-3.259,3.601c-0.13,0.144-0.198,0.328-0.198,0.514c0,0.1,0.019,0.198,0.059,0.293l0.602,1.455
						c0.101,0.243,0.319,0.418,0.578,0.463c0.26,0.046,0.524-0.043,0.702-0.237l10.951-11.895c0.202-0.221,0.258-0.536,0.144-0.813
						l-0.138-0.332c-0.114-0.274-0.376-0.458-0.673-0.472l-16.213-0.799C288.819,168.535,288.567,168.658,288.415,168.873z
						 M298.197,176.925c0-0.099-0.019-0.198-0.059-0.294l-2.417-5.826c-0.101-0.243-0.341-0.375-0.598-0.422
						c4.173,0.208,7.649,0.378,8.881,0.438c-0.828,0.899-3.137,3.408-5.944,6.458C298.123,177.164,298.197,177.052,298.197,176.925z
						"/>
					<path fill="#2A76A7" d="M295.94,170.723c-0.151,0.214-0.183,0.492-0.082,0.737l1.918,4.622
						c0.101,0.243,0.319,0.417,0.578,0.462c0.26,0.046,0.524-0.043,0.702-0.239l3.961-4.324c0.201-0.219,0.257-0.534,0.144-0.81
						c-0.113-0.275-0.376-0.459-0.673-0.474l-5.879-0.298C296.345,170.386,296.093,170.507,295.94,170.723z M297.748,171.995
						c0.996,0.05,1.816,0.092,3.032,0.153c-0.82,0.895-1.374,1.5-2.042,2.23C298.375,173.503,298.111,172.871,297.748,171.995z"/>
				</g>
				<g>
					<path fill="#2A76A7" enable-background="new    " d="M301.794,195.093l11.853-8.636l1.796,2.449
						c1.295,1.767,2.095,3.155,2.394,4.159c0.437,1.438,0.396,2.843-0.125,4.213c-0.52,1.367-1.468,2.556-2.842,3.557
						c-1.189,0.864-2.419,1.371-3.696,1.517c-1.278,0.146-2.431-0.033-3.461-0.537c-1.027-0.502-2.082-1.489-3.162-2.963
						L301.794,195.093z M303.744,195.41l1.002,1.366c1.197,1.634,2.13,2.691,2.797,3.175c0.942,0.676,1.977,0.996,3.104,0.954
						c1.129-0.042,2.237-0.459,3.327-1.254c1.145-0.835,1.92-1.823,2.326-2.963c0.408-1.145,0.399-2.316-0.021-3.521
						c-0.316-0.903-1.098-2.204-2.341-3.901l-0.612-0.836L303.744,195.41z"/>
					<path fill="#2A76A7" d="M313.192,185.838l-11.853,8.635c-0.344,0.249-0.418,0.731-0.168,1.073l2.756,3.758
						c1.165,1.59,2.292,2.636,3.445,3.201c1.159,0.567,2.466,0.772,3.887,0.61c1.402-0.16,2.769-0.718,4.063-1.658
						c1.491-1.086,2.537-2.401,3.109-3.906c0.58-1.526,0.627-3.108,0.142-4.708c-0.327-1.097-1.148-2.535-2.509-4.389l-1.795-2.449
						c-0.121-0.165-0.302-0.274-0.504-0.307C313.563,185.667,313.357,185.718,313.192,185.838z M313.479,187.53
						c0.508,0.693,1.342,1.83,1.342,1.83c1.238,1.688,2.004,3.008,2.277,3.924c0.18,0.591,0.27,1.166,0.27,1.732
						c0,0.67-0.124,1.33-0.375,1.99c-0.465,1.222-1.332,2.302-2.576,3.209c-1.077,0.781-2.197,1.244-3.33,1.373
						c-1.139,0.13-2.131-0.021-3.034-0.463c-0.911-0.445-1.879-1.362-2.879-2.727c0,0-1.52-2.073-2.301-3.139
						C303.925,194.492,312.424,188.299,313.479,187.53z"/>
					<path fill="#2A76A7" d="M312.872,187.81l-9.582,6.98c-0.165,0.12-0.275,0.3-0.307,0.5c-0.032,0.203,0.019,0.409,0.139,0.572
						l1.002,1.367c1.254,1.71,2.224,2.804,2.965,3.342c1.085,0.78,2.291,1.15,3.586,1.102c1.282-0.048,2.544-0.52,3.755-1.403
						c1.268-0.925,2.142-2.044,2.596-3.326c0.465-1.307,0.458-2.664-0.021-4.032c-0.343-0.984-1.145-2.327-2.446-4.1l-0.612-0.835
						c-0.12-0.165-0.302-0.274-0.503-0.306C313.243,187.64,313.036,187.689,312.872,187.81z M313.158,189.503
						c0.061,0.082,0.158,0.215,0.158,0.215c1.194,1.628,1.946,2.874,2.236,3.702c0.186,0.532,0.279,1.051,0.279,1.561
						c0,0.489-0.084,0.971-0.255,1.451c-0.355,0.999-1.028,1.85-2.057,2.601c-0.957,0.697-1.933,1.069-2.9,1.105
						c-0.958,0.036-1.816-0.228-2.625-0.809c-0.41-0.299-1.202-1.064-2.626-3.005c0,0-0.281-0.384-0.547-0.748
						C305.833,194.84,312.146,190.242,313.158,189.503z"/>
				</g>
				<g>
					<path fill="#2A76A7" enable-background="new    " d="M328.973,204.733l6.301,5.555l-0.958,1.08l-5.204-4.585l-3.039,3.427
						l5.157,4.546l-0.952,1.072l-5.157-4.544l-3.814,4.297l5.158,4.549l-0.959,1.078l-6.257-5.515L328.973,204.733z"/>
					<path fill="#2A76A7" d="M328.925,203.966c-0.204,0.012-0.395,0.106-0.529,0.258l-9.723,10.961
						c-0.281,0.318-0.251,0.802,0.067,1.084l6.258,5.515c0.317,0.28,0.804,0.25,1.085-0.066l0.959-1.079
						c0.125-0.141,0.194-0.322,0.194-0.51c0-0.015-0.001-0.031-0.002-0.046c-0.012-0.204-0.105-0.393-0.259-0.528
						c0,0-3.67-3.238-4.58-4.041c0.647-0.729,2.146-2.417,2.793-3.146c0.91,0.802,4.58,4.037,4.58,4.037
						c0.318,0.28,0.806,0.25,1.088-0.067l0.952-1.073c0.125-0.141,0.193-0.321,0.193-0.508c0-0.015-0.001-0.031-0.001-0.046
						c-0.013-0.204-0.106-0.395-0.259-0.529c0,0-3.67-3.234-4.581-4.036c0.564-0.636,1.456-1.641,2.021-2.277
						c0.912,0.804,4.625,4.076,4.625,4.076c0.319,0.281,0.807,0.25,1.088-0.067l0.958-1.08c0.136-0.151,0.205-0.353,0.192-0.555
						c-0.013-0.205-0.105-0.395-0.259-0.53l-6.302-5.555C329.33,204.022,329.129,203.954,328.925,203.966z M329.04,205.817
						c0.056,0.049,0.254,0.223,0.337,0.296c-0.235-0.09-0.47-0.057-0.68,0.087C328.752,206.14,329.005,205.854,329.04,205.817z
						 M325.424,209.894c-0.052,0.103-0.121,0.2-0.121,0.316c0,0.015,0,0.032,0.001,0.046c0.01,0.154,0.103,0.281,0.197,0.402
						c-0.259-0.152-0.551-0.125-0.796,0.044C325.063,210.298,325.072,210.29,325.424,209.894z M320.658,215.268
						c-0.05,0.101-0.121,0.198-0.121,0.313c0,0.015,0.001,0.031,0.002,0.046c0.007,0.121,0.093,0.209,0.151,0.311
						c-0.089-0.08-0.294-0.259-0.353-0.311C320.37,215.591,320.606,215.323,320.658,215.268z"/>
				</g>
				<g>
					<path fill="#2A76A7" enable-background="new    " d="M358.386,224.129l1.35,0.578l-5.793,13.449l-1.348-0.578L358.386,224.129z
						"/>
					<path fill="#2A76A7" d="M357.679,223.826l-5.792,13.45c-0.167,0.389,0.014,0.841,0.404,1.008l1.348,0.577
						c0.188,0.081,0.4,0.084,0.59,0.009c0.19-0.077,0.341-0.224,0.422-0.412l5.793-13.449c0.08-0.187,0.083-0.399,0.007-0.588
						c-0.077-0.189-0.225-0.34-0.412-0.419l-1.35-0.579C358.299,223.256,357.847,223.438,357.679,223.826z"/>
				</g>
				<g>
					<path fill="#2A76A7" enable-background="new    " d="M368.297,243.262l3.181-14.279l0.311,0.067l7.092,13.04l2.435-10.931
						l1.413,0.313l-3.181,14.281l-0.322-0.072l-7.043-12.885l-2.404,10.795L368.297,243.262z"/>
					<path fill="#2A76A7" d="M370.726,228.817l-3.181,14.279c-0.092,0.415,0.17,0.824,0.585,0.917l1.481,0.328
						c0.199,0.044,0.408,0.01,0.58-0.101c0.173-0.11,0.295-0.283,0.339-0.482c0,0,1.368-6.142,1.959-8.796
						c1.455,2.664,6.06,11.086,6.06,11.086c0.106,0.193,0.291,0.333,0.508,0.383l0.321,0.072c0.2,0.042,0.41,0.006,0.582-0.103
						c0.173-0.108,0.294-0.281,0.34-0.48l3.181-14.28c0.09-0.414-0.172-0.824-0.587-0.917l-1.412-0.313
						c-0.201-0.043-0.409-0.009-0.581,0.102c-0.173,0.109-0.294,0.282-0.338,0.481c0,0-1.392,6.25-1.987,8.924
						c-1.458-2.68-6.109-11.232-6.109-11.232c-0.107-0.197-0.294-0.337-0.513-0.384l-0.311-0.068
						C371.228,228.143,370.818,228.404,370.726,228.817z M371.864,230.797c0.159,0.29,0.545,1.002,0.835,1.536
						c-0.168-0.178-0.372-0.335-0.624-0.299c-0.302,0.042-0.529,0.275-0.613,0.566C371.61,231.938,371.781,231.165,371.864,230.797z
						 M378.989,242.85c0.258-0.036,0.414-0.256,0.524-0.483c-0.123,0.554-0.282,1.264-0.354,1.585
						c-0.142-0.26-0.5-0.917-0.751-1.377C378.574,242.73,378.754,242.883,378.989,242.85z"/>
				</g>
				<g>
					<path fill="#2A76A7" enable-background="new    " d="M423.688,232.317l-0.936,1.254c-0.945-0.65-1.932-1.095-2.964-1.335
						c-1.029-0.243-2.002-0.285-2.913-0.125c-1.134,0.197-2.163,0.664-3.094,1.397c-0.927,0.734-1.592,1.625-1.985,2.673
						c-0.397,1.05-0.504,2.103-0.32,3.161c0.189,1.084,0.662,2.064,1.418,2.939c0.755,0.873,1.694,1.502,2.822,1.883
						c1.126,0.377,2.303,0.459,3.527,0.247c1.489-0.256,2.672-0.897,3.558-1.911c0.881-1.016,1.3-2.206,1.257-3.572l-4.609,0.804
						l-0.244-1.393l6.232-1.084c0.376,2.23,0.023,4.113-1.063,5.652c-1.083,1.537-2.727,2.498-4.93,2.882
						c-2.672,0.465-4.95-0.073-6.827-1.618c-1.444-1.189-2.327-2.702-2.649-4.536c-0.24-1.365-0.116-2.696,0.365-3.992
						c0.48-1.296,1.264-2.378,2.348-3.251c1.083-0.873,2.379-1.44,3.894-1.702c1.228-0.215,2.419-0.195,3.577,0.058
						C421.312,231,422.491,231.522,423.688,232.317z"/>
					<path fill="#2A76A7" d="M416.442,229.934c-1.637,0.284-3.066,0.911-4.246,1.862c-1.188,0.958-2.058,2.164-2.585,3.583
						c-0.529,1.418-0.662,2.895-0.399,4.392c0.352,2.01,1.332,3.692,2.915,4.993c2.05,1.686,4.556,2.287,7.452,1.782
						c2.4-0.418,4.227-1.493,5.428-3.197c1.197-1.701,1.599-3.792,1.189-6.22c-0.034-0.201-0.148-0.38-0.314-0.499
						c-0.168-0.118-0.375-0.165-0.577-0.129l-6.231,1.084c-0.202,0.035-0.383,0.149-0.5,0.315c-0.118,0.166-0.162,0.372-0.126,0.572
						l0.243,1.393c0.033,0.2,0.147,0.378,0.315,0.496c0.166,0.116,0.374,0.163,0.575,0.127c0,0,2.342-0.409,3.582-0.624
						c-0.13,0.779-0.398,1.502-0.946,2.133c-0.772,0.888-1.786,1.43-3.102,1.659c-1.093,0.188-2.155,0.115-3.154-0.219
						c-0.983-0.335-1.821-0.892-2.482-1.657c-0.668-0.775-1.075-1.616-1.243-2.57c-0.162-0.93-0.069-1.833,0.28-2.757
						c0.343-0.91,0.929-1.698,1.745-2.344c0.825-0.65,1.748-1.067,2.748-1.242c0.803-0.141,1.679-0.102,2.603,0.116
						c0.933,0.218,1.841,0.626,2.706,1.22c0.34,0.235,0.806,0.158,1.056-0.173l0.936-1.254c0.127-0.169,0.175-0.382,0.139-0.591
						c-0.036-0.207-0.156-0.392-0.331-0.507c-1.273-0.845-2.552-1.408-3.801-1.68C419.067,229.724,417.764,229.703,416.442,229.934z
						 M419.988,231.498L419.988,231.498c0.833,0.182,1.693,0.569,2.561,1.062c-0.024,0.033-0.027,0.034-0.052,0.067
						C421.682,232.152,420.857,231.703,419.988,231.498z M410.623,238.293c0-0.808,0.145-1.605,0.433-2.383
						c0.431-1.155,1.138-2.138,2.11-2.921c0.057-0.047,0.132-0.071,0.191-0.116c-0.018,0.013-0.035,0.02-0.054,0.033
						c-1.038,0.82-1.787,1.831-2.23,3.006c-0.3,0.791-0.448,1.596-0.45,2.4C410.623,238.308,410.623,238.299,410.623,238.293z
						 M411.417,241.428c0.15,0.286,0.35,0.555,0.545,0.827C411.769,241.988,411.567,241.72,411.417,241.428z M413.108,243.579
						c-0.139-0.115-0.208-0.266-0.334-0.386c0.198,0.194,0.403,0.383,0.626,0.552C413.307,243.676,413.199,243.653,413.108,243.579z
						 M424.745,238.156c0.021,0.235,0.061,0.483,0.063,0.708c-0.018-0.205-0.103-0.401-0.265-0.531
						c-0.075-0.063-0.175-0.066-0.269-0.096C424.43,238.21,424.637,238.173,424.745,238.156z M424.607,240.411
						c-0.037,0.15-0.037,0.316-0.081,0.46C424.57,240.725,424.57,240.562,424.607,240.411z M423.92,242.108
						c-0.069,0.114-0.095,0.247-0.174,0.358c-0.023,0.033-0.066,0.048-0.091,0.081C423.758,242.406,423.833,242.255,423.92,242.108z
						 M414.995,244.658c0.097,0.041,0.178,0.099,0.276,0.137C415.176,244.761,415.088,244.697,414.995,244.658z"/>
				</g>
				<g>
					<path fill="#2A76A7" enable-background="new    " d="M434.932,226.102l7.764-3.238l0.558,1.332l-6.411,2.674l1.776,4.222
						l6.355-2.653l0.554,1.323l-6.353,2.652l2.224,5.296l6.355-2.65l0.56,1.328l-7.71,3.221L434.932,226.102z"/>
					<path fill="#2A76A7" d="M442.397,222.156l-7.764,3.238c-0.187,0.079-0.337,0.228-0.416,0.417
						c-0.075,0.188-0.075,0.399,0.004,0.588l5.672,13.505c0.078,0.188,0.229,0.336,0.419,0.414s0.403,0.077,0.59-0.002l7.709-3.221
						c0.188-0.077,0.338-0.228,0.415-0.417c0.076-0.188,0.076-0.4-0.002-0.588l-0.56-1.328c-0.166-0.392-0.618-0.575-1.009-0.411
						c0,0-4.523,1.887-5.646,2.354c-0.376-0.897-1.252-2.981-1.628-3.88c1.12-0.467,5.643-2.356,5.643-2.356
						c0.295-0.123,0.473-0.407,0.473-0.708c0-0.099-0.019-0.199-0.06-0.295l-0.555-1.323c-0.078-0.189-0.229-0.338-0.418-0.415
						c-0.187-0.077-0.4-0.077-0.59,0.002c0,0-4.523,1.889-5.646,2.356c-0.328-0.783-0.849-2.021-1.18-2.804
						c1.125-0.469,5.699-2.378,5.699-2.378c0.296-0.123,0.474-0.408,0.474-0.708c0-0.099-0.02-0.199-0.062-0.295l-0.557-1.332
						c-0.077-0.189-0.228-0.338-0.417-0.415C442.798,222.077,442.587,222.077,442.397,222.156z M436.376,226.333
						c-0.09,0.076-0.198,0.135-0.247,0.246c-0.032,0.084-0.048,0.174-0.051,0.263c-0.019-0.046-0.124-0.295-0.138-0.327
						C436.012,226.482,436.265,226.378,436.376,226.333z M438.02,231.462c0.168,0.251,0.43,0.423,0.729,0.372
						c-0.112,0.083-0.232,0.157-0.286,0.289c-0.036,0.085-0.052,0.176-0.056,0.266C438.215,231.926,438.209,231.914,438.02,231.462z
						 M440.797,238.079c0.139,0.206,0.33,0.365,0.569,0.378c-0.081,0.035-0.29,0.122-0.35,0.146
						C440.995,238.55,440.836,238.166,440.797,238.079z"/>
				</g>
				<g>
					<path fill="#2A76A7" enable-background="new    " d="M452.021,217.811l2.426-1.627c1.354-0.908,2.308-1.469,2.861-1.68
						c0.836-0.322,1.664-0.36,2.483-0.122c0.818,0.24,1.495,0.753,2.031,1.546c0.444,0.663,0.68,1.347,0.707,2.058
						c0.023,0.709-0.166,1.388-0.572,2.034c-0.409,0.643-1.122,1.313-2.14,2.002l8.194,2.712l-1.507,1.01l-8.186-2.716l-0.699,0.465
						l3.813,5.65l-1.22,0.817L452.021,217.811z M454.041,218.183l2.786,4.13l2.105-1.389c0.813-0.546,1.361-1.024,1.647-1.44
						c0.285-0.415,0.424-0.865,0.411-1.348c-0.008-0.488-0.155-0.939-0.437-1.356c-0.276-0.408-0.637-0.705-1.082-0.89
						s-0.897-0.229-1.352-0.132c-0.457,0.099-1.102,0.426-1.935,0.985L454.041,218.183z"/>
					<path fill="#2A76A7" d="M457.032,213.787c-0.608,0.233-1.595,0.809-3.016,1.76l-2.426,1.627
						c-0.352,0.237-0.448,0.714-0.21,1.066l8.196,12.15c0.114,0.168,0.29,0.285,0.491,0.325c0.202,0.039,0.405-0.004,0.577-0.117
						l1.22-0.817c0.219-0.148,0.34-0.391,0.34-0.638c0-0.148-0.042-0.297-0.133-0.429c0,0-2.257-3.347-3.157-4.679
						c1.355,0.448,7.346,2.437,7.346,2.437c0.229,0.075,0.477,0.041,0.674-0.091l1.508-1.01c0.215-0.144,0.341-0.384,0.341-0.637
						c0-0.035-0.003-0.069-0.007-0.103c-0.038-0.291-0.239-0.532-0.52-0.626c0,0-4.957-1.639-6.843-2.264
						c0.496-0.438,0.917-0.872,1.193-1.312c0.461-0.729,0.692-1.509,0.692-2.317c0-0.051,0-0.103,0-0.153
						c-0.032-0.857-0.315-1.683-0.839-2.46c-0.632-0.937-1.457-1.561-2.453-1.853C459.023,213.359,458.024,213.408,457.032,213.787z
						 M454.877,216.821c1.622-1.087,2.368-1.469,2.708-1.6c0.681-0.261,1.33-0.294,1.99-0.103c0.649,0.19,1.176,0.596,1.606,1.238
						c0.367,0.544,0.557,1.087,0.578,1.659c0,0.033,0.002,0.065,0.002,0.099c0,0.52-0.149,1.012-0.456,1.497
						c-0.35,0.552-0.996,1.151-1.921,1.778c-0.211,0.143-0.337,0.382-0.337,0.633c0,0.035,0.003,0.07,0.009,0.106
						c0.03,0.215,0.214,0.343,0.386,0.462c-0.168-0.056-0.879-0.292-0.879-0.292c-0.229-0.076-0.476-0.042-0.674,0.091l-0.695,0.465
						c-0.172,0.112-0.289,0.289-0.328,0.489c-0.009,0.049-0.016,0.098-0.016,0.148c0,0.067,0.043,0.125,0.061,0.192
						c-1.908-2.829-3.441-5.103-3.821-5.665C453.784,217.555,454.877,216.821,454.877,216.821z"/>
					<path fill="#2A76A7" d="M457.959,215.007c-0.56,0.122-1.279,0.482-2.203,1.1l-2.146,1.438
						c-0.353,0.237-0.448,0.714-0.212,1.066l2.788,4.131c0.237,0.349,0.713,0.443,1.064,0.211l2.106-1.389
						c0.913-0.612,1.518-1.149,1.857-1.645c0.379-0.549,0.563-1.155,0.547-1.8c-0.012-0.634-0.203-1.229-0.568-1.769
						c-0.36-0.534-0.84-0.927-1.427-1.17C459.174,214.938,458.566,214.879,457.959,215.007z M456.617,217.382
						c0.978-0.657,1.464-0.829,1.67-0.873c0.298-0.063,0.59-0.035,0.891,0.092c0.307,0.125,0.547,0.325,0.737,0.609
						c0.199,0.295,0.3,0.603,0.306,0.943c0.01,0.322-0.083,0.617-0.276,0.897c-0.156,0.228-0.532,0.627-1.44,1.239
						c0.002-0.003-0.844,0.555-1.466,0.964c-0.5-0.743-1.427-2.114-1.929-2.862C455.738,217.969,456.617,217.382,456.617,217.382z"
						/>
				</g>
				<g>
					<path fill="#2A76A7" enable-background="new    " d="M478.963,215.835l-9.424-11.429l0.162-0.176l12.925,3.728l-4.896-12.465
						l0.162-0.174l12.26,8.345l-0.979,1.063l-8.721-6.019l4.24,10.894l-0.25,0.273l-11.362-3.261l6.843,8.18L478.963,215.835z"/>
					<path fill="#2A76A7" d="M477.329,194.797l-0.162,0.173c-0.136,0.146-0.207,0.333-0.207,0.523c0,0.095,0.018,0.189,0.054,0.281
						c0,0,3.437,8.748,4.326,11.013c-2.347-0.676-11.426-3.295-11.426-3.295c-0.279-0.082-0.581,0.004-0.782,0.219l-0.162,0.176
						c-0.259,0.283-0.269,0.711-0.027,1.007l9.426,11.428c0.145,0.172,0.352,0.274,0.573,0.28c0.224,0.006,0.44-0.085,0.591-0.249
						l0.956-1.041c0.137-0.146,0.205-0.333,0.205-0.519c0-0.175-0.061-0.35-0.18-0.492c0,0-3.353-4.008-5.233-6.257
						c2.993,0.859,8.95,2.569,8.95,2.569c0.282,0.081,0.583-0.005,0.782-0.222l0.249-0.274c0.133-0.145,0.202-0.329,0.202-0.516
						c0-0.093-0.019-0.188-0.054-0.277c0,0-2.209-5.677-3.329-8.56c2.404,1.66,6.656,4.593,6.656,4.593
						c0.316,0.219,0.747,0.172,1.006-0.112l0.978-1.063c0.15-0.166,0.224-0.386,0.195-0.608c-0.023-0.22-0.147-0.42-0.331-0.546
						l-12.256-8.344C478.013,194.471,477.588,194.519,477.329,194.797z M479.204,197.144c0.295,0.199,0.761,0.517,1.201,0.816
						c-0.154,0.011-0.304,0.05-0.429,0.147c-0.141,0.109-0.18,0.282-0.219,0.447C479.542,198,479.352,197.513,479.204,197.144z
						 M471.471,205.54c0.37,0.106,0.869,0.25,1.421,0.409c-0.172,0.051-0.355,0.089-0.458,0.246
						c-0.075,0.116-0.105,0.246-0.111,0.377C472.019,206.204,471.678,205.792,471.471,205.54z M483.195,208.476
						c0.077-0.083,0.083-0.195,0.116-0.298c0.067,0.171,0.208,0.534,0.253,0.648c-0.124-0.035-0.518-0.148-0.703-0.203
						C482.978,208.582,483.106,208.572,483.195,208.476z"/>
				</g>
				<g>
					<path fill="#2A76A7" enable-background="new    " d="M487.967,180.034l16.17,1.08l-0.763,1.377l-5.345-0.309l-3.054,5.526
						l3.127,4.329l-0.792,1.429l-9.518-13.121L487.967,180.034z M490.608,181.687l3.443,4.765l2.423-4.386L490.608,181.687z"/>
					<path fill="#2A76A7" d="M487.297,179.66l-0.176,0.312c-0.146,0.26-0.129,0.582,0.049,0.823l9.518,13.121
						c0.154,0.212,0.407,0.333,0.672,0.315c0.262-0.016,0.5-0.165,0.626-0.396l0.791-1.429c0.066-0.116,0.097-0.243,0.097-0.37
						c0-0.158-0.049-0.315-0.145-0.449c0,0-2.371-3.285-2.841-3.936c0.363-0.663,2.215-4.013,2.582-4.676
						c0.803,0.046,4.86,0.28,4.86,0.28c0.297,0.019,0.577-0.136,0.719-0.396l0.762-1.377c0.129-0.229,0.129-0.508,0.002-0.739
						c-0.126-0.23-0.36-0.38-0.625-0.397l-16.169-1.081C487.724,179.249,487.441,179.401,487.297,179.66z M489.132,180.881
						c1.226,0.082,4.655,0.31,8.803,0.588c-0.232,0.036-0.464,0.13-0.581,0.342l-3.052,5.526c-0.063,0.117-0.096,0.244-0.096,0.371
						c0,0.107,0.054,0.203,0.099,0.3C491.864,184.644,489.852,181.871,489.132,180.881z"/>
					<path fill="#2A76A7" d="M489.935,181.314c-0.144,0.26-0.122,0.58,0.049,0.821l3.442,4.765c0.156,0.215,0.409,0.334,0.674,0.318
						c0.263-0.017,0.5-0.166,0.626-0.396l2.423-4.385c0.13-0.229,0.13-0.508,0.004-0.739c-0.127-0.231-0.365-0.381-0.627-0.397
						l-5.865-0.379C490.363,180.9,490.079,181.056,489.935,181.314z M492.189,182.558c1.213,0.08,2.034,0.132,3.026,0.196
						c-0.456,0.828-0.79,1.431-1.251,2.263C493.384,184.211,492.902,183.544,492.189,182.558z"/>
				</g>
				<g>
					<path fill="#2A76A7" enable-background="new    " d="M509.742,166.798l-14.183-3.775l0.081-0.308l13.374-6.511l-10.854-2.89
						l0.373-1.392l14.183,3.775l-0.088,0.317l-13.217,6.468l10.722,2.854L509.742,166.798z"/>
					<path fill="#2A76A7" d="M497.786,151.725l-0.373,1.392c-0.015,0.064-0.023,0.132-0.023,0.198c0,0.134,0.033,0.267,0.103,0.384
						c0.103,0.176,0.271,0.306,0.469,0.358c0,0,6.209,1.653,8.862,2.359c-2.748,1.339-11.521,5.609-11.521,5.609
						c-0.201,0.098-0.348,0.279-0.405,0.495l-0.081,0.308c-0.018,0.064-0.027,0.13-0.027,0.195c0,0.34,0.229,0.651,0.571,0.742
						l14.184,3.775c0.195,0.053,0.405,0.024,0.583-0.078c0.178-0.103,0.308-0.271,0.358-0.466l0.391-1.461
						c0.02-0.066,0.027-0.133,0.027-0.198c0-0.34-0.229-0.649-0.571-0.742c0,0-6.101-1.623-8.736-2.325
						c2.732-1.338,11.373-5.566,11.373-5.566c0.199-0.097,0.346-0.276,0.402-0.489l0.088-0.316c0.018-0.066,0.027-0.133,0.027-0.201
						c0-0.133-0.036-0.265-0.103-0.384c-0.103-0.178-0.271-0.306-0.469-0.358l-14.184-3.775
						C498.319,151.072,497.897,151.316,497.786,151.725z M509.785,156.205c0-0.023,0-0.049-0.004-0.073
						c-0.023-0.26-0.237-0.424-0.46-0.542c0.547,0.146,1.255,0.333,1.574,0.419c-0.271,0.13-0.946,0.462-1.424,0.695
						C509.621,156.561,509.785,156.415,509.785,156.205z M498.978,161.946c-0.171,0.145-0.336,0.311-0.336,0.538
						c0,0.024,0.002,0.049,0.002,0.074c0.03,0.303,0.257,0.54,0.542,0.637c-0.656-0.176-1.427-0.379-1.79-0.477
						C497.693,162.57,498.427,162.215,498.978,161.946z"/>
				</g>
				<g>
					<path fill="#2A76A7" enable-background="new    " d="M500.215,140.325l0.057-1.69l6.173-3.538l-5.922-3.881l0.054-1.694
						l7.508,4.893l7.015,0.234l-0.044,1.444l-7.019-0.235L500.215,140.325z"/>
					<path fill="#2A76A7" d="M500.221,128.841c-0.247,0.127-0.405,0.378-0.415,0.655c0,0-0.054,1.709-0.054,1.719
						c0,0.258,0.129,0.5,0.346,0.642c0,0,3.46,2.266,4.878,3.195c-1.475,0.845-5.089,2.917-5.089,2.917
						c-0.231,0.132-0.376,0.375-0.385,0.64c0,0-0.058,1.707-0.058,1.716c0,0.269,0.142,0.52,0.373,0.659
						c0.237,0.143,0.536,0.147,0.78,0.008c0,0,7.27-4.153,7.631-4.358c0.413,0.013,6.799,0.228,6.799,0.228
						c0.203,0.006,0.402-0.068,0.553-0.208c0.148-0.139,0.235-0.333,0.243-0.537c0,0,0.046-1.461,0.046-1.468
						c0-0.413-0.328-0.753-0.743-0.768c0,0-6.396-0.213-6.801-0.227c-0.344-0.224-7.328-4.775-7.328-4.775
						C500.766,128.728,500.468,128.712,500.221,128.841z M507.215,135.119c0-0.008,0-0.015,0-0.022c0-0.205-0.133-0.369-0.277-0.512
						c0.127,0.082,0.726,0.474,0.726,0.474c0.069,0.043,0.15,0.049,0.226,0.07c-0.079,0.016-0.162,0.021-0.235,0.063
						c0,0-0.606,0.347-0.733,0.419C507.064,135.472,507.209,135.323,507.215,135.119z"/>
				</g>
			</g>
			<g>
				<g>
					<path fill="#2A76A7" enable-background="new    " d="M294.107,81.258l1.315-2.509c0.528-1.008,1.056-1.722,1.579-2.139
						c0.525-0.417,1.118-0.651,1.78-0.707c0.664-0.054,1.297,0.077,1.905,0.394c0.567,0.295,1.01,0.703,1.33,1.221
						c0.321,0.521,0.485,1.123,0.492,1.809c0.574-0.544,1.106-0.917,1.597-1.114c0.492-0.201,1.005-0.285,1.54-0.261
						c0.536,0.027,1.053,0.168,1.557,0.432c1.023,0.532,1.692,1.359,2.012,2.471c0.315,1.116,0.145,2.302-0.515,3.56l-1.833,3.494
						L294.107,81.258z M296.01,80.663l4.083,2.13l0.382-0.727c0.462-0.881,0.719-1.573,0.772-2.075
						c0.053-0.5-0.035-0.965-0.264-1.392c-0.228-0.425-0.56-0.756-0.993-0.979c-0.585-0.304-1.15-0.34-1.696-0.106
						c-0.545,0.231-1.05,0.792-1.517,1.68L296.01,80.663z M301.377,83.461l4.892,2.55l0.826-1.573
						c0.486-0.929,0.752-1.654,0.798-2.182c0.043-0.528-0.059-1.025-0.309-1.488c-0.25-0.465-0.6-0.813-1.052-1.048
						c-0.566-0.295-1.157-0.369-1.772-0.221c-0.617,0.15-1.172,0.505-1.667,1.068c-0.331,0.381-0.777,1.105-1.34,2.178
						L301.377,83.461z"/>
					<path fill="#2A76A7" d="M298.718,75.14c-0.817,0.067-1.556,0.361-2.197,0.871c-0.616,0.492-1.199,1.271-1.781,2.383
						l-1.315,2.509c-0.197,0.375-0.051,0.839,0.327,1.037l12.757,6.648c0.377,0.197,0.842,0.051,1.04-0.325l1.833-3.493
						c0.749-1.428,0.942-2.815,0.574-4.122c-0.38-1.326-1.186-2.316-2.396-2.946c-0.594-0.31-1.225-0.486-1.875-0.517
						c-0.655-0.03-1.284,0.076-1.87,0.317c-0.276,0.112-0.582,0.406-0.869,0.601c-0.1-0.326-0.095-0.7-0.271-0.987
						c-0.396-0.637-0.943-1.142-1.63-1.499C300.307,75.233,299.525,75.073,298.718,75.14z M296.105,79.104
						c0.592-1.129,1.076-1.654,1.376-1.894c0.404-0.321,0.851-0.499,1.363-0.542c0.518-0.042,1.004,0.059,1.484,0.309
						c0.444,0.231,0.781,0.541,1.032,0.944c0.248,0.402,0.371,0.865,0.377,1.414c0.003,0.305,0.188,0.581,0.47,0.699
						c0.282,0.118,0.608,0.058,0.831-0.152c0.501-0.475,0.957-0.798,1.354-0.958c0.388-0.159,0.784-0.225,1.216-0.206
						c0.427,0.021,0.832,0.133,1.234,0.343c0.834,0.435,1.367,1.09,1.628,2.004c0.083,0.294,0.125,0.594,0.125,0.899
						c0,0.661-0.192,1.351-0.582,2.092c0,0-0.944,1.8-1.475,2.813c-1.154-0.602-10.239-5.336-11.392-5.938
						C295.525,80.209,296.105,79.104,296.105,79.104z"/>
					<path fill="#2A76A7" d="M297.992,76.809c-0.717,0.303-1.338,0.967-1.896,2.027c0,0.001-0.77,1.472-0.77,1.472
						c-0.196,0.376-0.05,0.84,0.326,1.037l4.083,2.129c0.377,0.196,0.842,0.051,1.04-0.324l0.382-0.727
						c0.513-0.979,0.792-1.749,0.855-2.353c0.069-0.652-0.048-1.27-0.349-1.833c-0.307-0.568-0.75-1.007-1.319-1.301
						C299.561,76.529,298.747,76.484,297.992,76.809z M297.462,79.548c0.473-0.901,0.878-1.219,1.135-1.329
						c0.335-0.144,0.654-0.119,1.038,0.081c0.294,0.152,0.513,0.367,0.67,0.661c0.126,0.234,0.188,0.482,0.188,0.75
						c0,0.066-0.003,0.133-0.011,0.198c-0.029,0.277-0.172,0.816-0.689,1.801c0,0-0.021,0.041-0.024,0.045
						c-0.755-0.395-1.963-1.024-2.719-1.418C297.254,79.946,297.462,79.548,297.462,79.548z"/>
					<path fill="#2A76A7" d="M304.579,78.752c-0.773,0.188-1.467,0.628-2.064,1.309c-0.002,0.002-1.443,2.328-1.443,2.328
						l-0.376,0.717c-0.095,0.18-0.113,0.391-0.053,0.584c0.061,0.195,0.198,0.357,0.377,0.451l4.893,2.55
						c0.376,0.197,0.842,0.052,1.039-0.325l0.827-1.574c0.54-1.03,0.828-1.838,0.882-2.471c0.057-0.68-0.078-1.325-0.397-1.917
						c-0.321-0.599-0.783-1.059-1.373-1.366C306.156,78.656,305.378,78.56,304.579,78.752z M302.436,83.1l1.241-2.031
						c0.387-0.44,0.802-0.711,1.266-0.825c0.431-0.104,0.834-0.052,1.232,0.156c0.315,0.163,0.554,0.403,0.729,0.73
						c0.153,0.282,0.228,0.574,0.228,0.889c0,0.058-0.002,0.114-0.007,0.172c-0.024,0.287-0.168,0.851-0.712,1.891
						c0,0-0.244,0.464-0.469,0.892c-0.846-0.441-2.679-1.397-3.526-1.837C302.419,83.133,302.436,83.1,302.436,83.1z"/>
				</g>
				<g>
					<path fill="#2A76A7" enable-background="new    " d="M306.164,61.657l0.872-1.139l11.435,8.702l-0.871,1.137L306.164,61.657z"
						/>
					<path fill="#2A76A7" d="M306.934,59.757c-0.203,0.027-0.386,0.132-0.51,0.294l-0.873,1.14
						c-0.125,0.162-0.178,0.368-0.151,0.569c0.027,0.202,0.134,0.386,0.296,0.508l11.437,8.699c0.337,0.256,0.822,0.192,1.079-0.144
						l0.872-1.137c0.124-0.162,0.178-0.366,0.15-0.568c-0.026-0.203-0.134-0.386-0.296-0.509l-11.436-8.702
						C307.342,59.784,307.137,59.729,306.934,59.757z"/>
				</g>
				<g>
					<path fill="#2A76A7" enable-background="new    " d="M317.116,49.035l2.108-1.935c1.175-1.08,2.016-1.761,2.521-2.048
						c0.762-0.432,1.557-0.594,2.384-0.484c0.829,0.109,1.562,0.508,2.196,1.197c0.531,0.572,0.861,1.204,0.992,1.886
						c0.131,0.682,0.047,1.368-0.251,2.054c-0.298,0.684-0.887,1.437-1.772,2.255l8.339,1.413l-1.31,1.2l-8.331-1.417l-0.604,0.554
						l4.532,4.907l-1.059,0.969L317.116,49.035z M319.127,49.098l3.312,3.585l1.834-1.656c0.705-0.646,1.164-1.194,1.38-1.638
						c0.215-0.444,0.28-0.898,0.198-1.368c-0.082-0.466-0.29-0.883-0.627-1.247c-0.327-0.354-0.719-0.586-1.179-0.7
						c-0.459-0.114-0.9-0.088-1.329,0.072c-0.427,0.162-1.002,0.576-1.727,1.242L319.127,49.098z"/>
					<path fill="#2A76A7" d="M321.365,44.385c-0.57,0.324-1.441,1.027-2.663,2.152l-2.107,1.933c-0.15,0.138-0.24,0.33-0.249,0.534
						c-0.008,0.203,0.066,0.402,0.204,0.552l9.746,10.549c0.288,0.312,0.774,0.332,1.086,0.045l1.059-0.969
						c0.152-0.138,0.241-0.331,0.25-0.533c0.001-0.013,0.001-0.022,0.001-0.033c0-0.191-0.073-0.377-0.204-0.521
						c0,0-2.629-2.846-3.723-4.029c1.436,0.244,7.429,1.264,7.429,1.264c0.234,0.04,0.475-0.031,0.65-0.191l1.31-1.2
						c0.161-0.149,0.248-0.354,0.248-0.565c0-0.072-0.01-0.146-0.031-0.218c-0.083-0.282-0.319-0.49-0.609-0.54
						c0,0-4.989-0.845-6.933-1.175c0.409-0.49,0.743-0.968,0.943-1.43c0.25-0.575,0.375-1.155,0.375-1.735
						c0-0.256-0.025-0.513-0.074-0.768c-0.157-0.825-0.556-1.585-1.182-2.264c-0.756-0.82-1.652-1.305-2.662-1.438
						C323.237,43.674,322.269,43.87,321.365,44.385z M319.746,47.666c1.396-1.284,2.066-1.766,2.382-1.946
						c0.616-0.352,1.238-0.479,1.899-0.39c0.652,0.085,1.218,0.397,1.732,0.956c0.428,0.463,0.699,0.972,0.801,1.51
						c0.031,0.162,0.047,0.323,0.047,0.483c0,0.369-0.082,0.74-0.249,1.121c-0.255,0.586-0.789,1.258-1.59,1.999
						c-0.158,0.147-0.246,0.353-0.246,0.563c0,0.074,0.011,0.148,0.032,0.219c0.057,0.188,0.247,0.267,0.412,0.363
						c-0.155-0.025-0.846-0.143-0.846-0.143c-0.235-0.04-0.475,0.031-0.65,0.191l-0.604,0.553c-0.15,0.138-0.24,0.329-0.248,0.534
						c-0.001,0.01-0.001,0.021-0.001,0.032c0,0.096,0.067,0.171,0.102,0.259c-2.255-2.441-4.058-4.393-4.516-4.888
						C318.81,48.524,319.746,47.666,319.746,47.666z"/>
					<path fill="#2A76A7" d="M322.447,45.428c-0.533,0.201-1.161,0.645-1.979,1.395l-1.863,1.71
						c-0.149,0.138-0.239,0.33-0.247,0.534c-0.008,0.203,0.064,0.401,0.203,0.552l3.313,3.584c0.286,0.31,0.771,0.331,1.083,0.05
						l1.834-1.656c0.786-0.722,1.294-1.332,1.557-1.874c0.286-0.589,0.375-1.208,0.264-1.836c-0.11-0.617-0.385-1.166-0.821-1.635
						c-0.426-0.461-0.95-0.771-1.556-0.923C323.624,45.177,323.022,45.21,322.447,45.428z M321.513,47.953
						c0.852-0.782,1.292-1.018,1.479-1.088c0.28-0.106,0.565-0.12,0.868-0.044c0.314,0.077,0.575,0.232,0.797,0.476
						c0.236,0.253,0.379,0.534,0.437,0.858c0.016,0.086,0.022,0.17,0.022,0.252c0,0.219-0.051,0.433-0.156,0.647
						c-0.119,0.248-0.426,0.692-1.207,1.407c0,0-0.725,0.654-1.264,1.142c-0.599-0.649-1.668-1.807-2.272-2.459
						C320.765,48.639,321.513,47.953,321.513,47.953z"/>
				</g>
				<g>
					<path fill="#2A76A7" enable-background="new    " d="M337.433,33.038l1.273-0.726l2.685,4.668l2.296-7.516l1.689-0.964
						l-2.787,9.011l10.41,3.163l-1.655,0.947l-8.818-2.67l3.337,5.802l-1.273,0.727L337.433,33.038z"/>
					<path fill="#2A76A7" d="M344.992,27.834l-1.689,0.964c-0.169,0.097-0.297,0.255-0.354,0.443c0,0-1.155,3.781-1.777,5.816
						c-0.795-1.383-1.797-3.127-1.797-3.127c-0.212-0.368-0.682-0.495-1.051-0.284l-1.272,0.726
						c-0.178,0.101-0.308,0.269-0.361,0.465c-0.054,0.196-0.027,0.404,0.075,0.583l7.156,12.441
						c0.211,0.367,0.683,0.495,1.051,0.284l1.273-0.728c0.178-0.1,0.308-0.268,0.361-0.465c0.018-0.065,0.026-0.133,0.026-0.2
						c0-0.134-0.035-0.265-0.103-0.383c0,0-1.396-2.425-2.371-4.121c2.316,0.7,6.959,2.107,6.959,2.107
						c0.204,0.062,0.424,0.038,0.608-0.068l1.654-0.947c0.241-0.138,0.388-0.393,0.388-0.667c0-0.028-0.002-0.057-0.005-0.085
						c-0.035-0.304-0.248-0.56-0.542-0.649c0,0-8.394-2.549-9.67-2.938c0.385-1.242,2.56-8.274,2.56-8.274
						c0.023-0.075,0.035-0.151,0.035-0.227c0-0.229-0.104-0.452-0.29-0.599C345.609,27.703,345.267,27.677,344.992,27.834z
						 M340.851,37.436c0.164,0.185,0.374,0.336,0.626,0.308c0.163-0.019,0.232-0.185,0.349-0.29
						c-0.001,0.018-0.009,0.037-0.009,0.057c0,0.125,0.031,0.248,0.09,0.36c0.096,0.18,0.26,0.314,0.456,0.375l0.02,0.006
						c-0.171,0.036-0.347,0.078-0.46,0.221c-0.111,0.14-0.168,0.309-0.168,0.478c0,0.036,0.024,0.069,0.029,0.105
						C341.317,38.247,341.291,38.202,340.851,37.436z"/>
				</g>
				<g>
					<path fill="#2A76A7" enable-background="new    " d="M361.607,21.675l7.882-2.403l0.416,1.35l-6.509,1.983l1.317,4.289
						l6.45-1.968l0.413,1.343l-6.45,1.966l1.651,5.377l6.449-1.966l0.415,1.35l-7.825,2.388L361.607,21.675z"/>
					<path fill="#2A76A7" d="M369.264,18.538l-7.881,2.403c-0.194,0.059-0.359,0.195-0.455,0.375
						c-0.097,0.18-0.117,0.39-0.056,0.584l4.207,13.709c0.06,0.194,0.195,0.356,0.375,0.452s0.391,0.116,0.587,0.057l7.825-2.388
						c0.196-0.06,0.359-0.195,0.455-0.375c0.097-0.18,0.117-0.39,0.057-0.585l-0.417-1.35c-0.124-0.405-0.554-0.633-0.961-0.51
						c0,0-4.556,1.391-5.712,1.743c-0.283-0.922-0.917-2.987-1.2-3.909c1.155-0.352,5.713-1.741,5.713-1.741
						c0.195-0.06,0.359-0.196,0.454-0.375c0.061-0.111,0.091-0.236,0.091-0.359c0-0.075-0.011-0.152-0.033-0.226l-0.413-1.342
						c-0.125-0.405-0.555-0.633-0.963-0.51c0,0-4.557,1.39-5.713,1.744c-0.246-0.8-0.62-2.02-0.866-2.82
						c1.159-0.354,5.77-1.758,5.77-1.758c0.196-0.06,0.36-0.195,0.456-0.375c0.06-0.111,0.09-0.235,0.09-0.36
						c0-0.075-0.011-0.151-0.034-0.225l-0.415-1.35C370.101,18.643,369.67,18.416,369.264,18.538z M362.918,22.079
						c-0.065,0.061-0.16,0.085-0.202,0.167c-0.038,0.07-0.043,0.151-0.057,0.229c-0.013-0.039-0.08-0.259-0.089-0.29
						C362.628,22.167,362.836,22.105,362.918,22.079z M364.148,27.326c0.066,0.086,0.106,0.195,0.204,0.248
						c0.111,0.058,0.232,0.086,0.354,0.088c-0.093,0.067-0.205,0.11-0.26,0.214c-0.04,0.072-0.045,0.153-0.059,0.231
						C364.268,27.716,364.265,27.709,364.148,27.326z M366.177,33.938c0.12,0.197,0.288,0.342,0.511,0.376
						c-0.087,0.027-0.299,0.091-0.36,0.111C366.312,34.376,366.201,34.017,366.177,33.938z"/>
				</g>
				<g>
					<path fill="#2A76A7" enable-background="new    " d="M385.387,30.641l-1.141-14.302l0.313-0.026l10.413,10.196l-0.87-10.95
						l1.415-0.114l1.138,14.305l-0.322,0.025l-10.323-10.063l0.858,10.812L385.387,30.641z"/>
					<path fill="#2A76A7" d="M395.453,14.681l-1.415,0.114c-0.403,0.032-0.707,0.368-0.707,0.764c0,0.02,0,0.042,0.003,0.061
						c0,0,0.49,6.195,0.704,8.904c-2.167-2.126-8.937-8.756-8.937-8.756c-0.16-0.156-0.379-0.236-0.606-0.218l-0.313,0.025
						c-0.421,0.035-0.737,0.403-0.704,0.827l1.14,14.302c0.033,0.421,0.403,0.738,0.828,0.703l1.48-0.116
						c0.206-0.015,0.395-0.111,0.527-0.268c0.119-0.139,0.183-0.316,0.183-0.498c0-0.02,0-0.04-0.002-0.06
						c0,0-0.482-6.085-0.695-8.771c2.161,2.108,8.854,8.632,8.854,8.632c0.16,0.154,0.375,0.233,0.599,0.216l0.322-0.026
						c0.425-0.033,0.741-0.404,0.708-0.825l-1.138-14.305c-0.015-0.204-0.115-0.393-0.268-0.525
						C395.859,14.729,395.658,14.664,395.453,14.681z M385.149,17.968c0.213,0.207,0.728,0.712,1.095,1.072
						c-0.186-0.065-0.376-0.111-0.563-0.024c-0.243,0.116-0.366,0.365-0.399,0.625C385.236,19.041,385.177,18.316,385.149,17.968z
						 M395.297,27.206c0.207-0.098,0.279-0.318,0.34-0.532c0.039,0.501,0.09,1.161,0.114,1.462c-0.184-0.18-0.647-0.631-0.954-0.93
						C394.965,27.249,395.131,27.282,395.297,27.206z"/>
				</g>
				<g>
					<path fill="#2A76A7" enable-background="new    " d="M407.457,27.445l1.303-0.571c0.653,1.673,1.541,2.582,2.66,2.724
						c0.479,0.06,0.941,0.005,1.391-0.161c0.448-0.169,0.806-0.427,1.074-0.772c0.268-0.346,0.427-0.73,0.482-1.149
						c0.06-0.476-0.043-0.965-0.309-1.464c-0.363-0.687-1.08-1.551-2.151-2.59c-1.074-1.045-1.732-1.789-1.974-2.226
						c-0.419-0.735-0.577-1.491-0.479-2.271c0.077-0.619,0.301-1.164,0.662-1.636c0.363-0.472,0.834-0.819,1.411-1.042
						c0.578-0.225,1.183-0.297,1.815-0.218c0.674,0.087,1.282,0.33,1.823,0.738c0.544,0.405,1.083,1.095,1.622,2.067l-1.273,0.731
						c-0.449-0.777-0.846-1.301-1.194-1.575c-0.35-0.273-0.746-0.439-1.191-0.496c-0.578-0.073-1.072,0.043-1.481,0.343
						c-0.409,0.299-0.646,0.708-0.71,1.218c-0.039,0.309-0.015,0.615,0.078,0.922c0.091,0.306,0.29,0.652,0.587,1.036
						c0.165,0.204,0.719,0.758,1.661,1.656c1.12,1.065,1.863,1.981,2.232,2.748c0.367,0.769,0.506,1.51,0.415,2.225
						c-0.132,1.032-0.641,1.878-1.521,2.538c-0.885,0.661-1.887,0.919-3.013,0.777c-0.867-0.109-1.622-0.44-2.269-0.99
						C408.465,29.46,407.912,28.605,407.457,27.445z"/>
					<path fill="#2A76A7" d="M411.249,15.572c-0.707,0.273-1.294,0.708-1.742,1.289c-0.446,0.582-0.72,1.257-0.816,2.008
						c-0.12,0.94,0.073,1.865,0.575,2.746c0.172,0.314,0.583,0.918,2.104,2.396c1.008,0.979,1.685,1.786,2.01,2.4
						c0.189,0.359,0.265,0.689,0.224,1.006c-0.037,0.289-0.145,0.541-0.328,0.778c-0.182,0.232-0.423,0.405-0.737,0.523
						c-0.332,0.123-0.666,0.162-1.021,0.117c-0.813-0.102-1.498-0.856-2.038-2.241c-0.074-0.195-0.229-0.351-0.424-0.43
						c-0.192-0.08-0.412-0.078-0.605,0.006l-1.302,0.572c-0.38,0.167-0.561,0.6-0.409,0.984c0.502,1.271,1.131,2.236,1.871,2.868
						c0.759,0.645,1.658,1.038,2.67,1.166c1.327,0.168,2.53-0.143,3.574-0.925c1.051-0.784,1.665-1.812,1.823-3.053
						c0.021-0.172,0.033-0.347,0.033-0.521c0-0.699-0.174-1.412-0.518-2.132c-0.415-0.861-1.197-1.833-2.398-2.973l-1.589-1.581
						c0-0.002-0.45-0.777-0.45-0.777c0-0.001-0.052-0.605-0.052-0.605c0.036-0.302,0.165-0.522,0.403-0.694
						c0.249-0.185,0.544-0.249,0.927-0.201c0.305,0.039,0.571,0.149,0.815,0.34c0.181,0.142,0.505,0.493,0.999,1.351
						c0.099,0.178,0.268,0.307,0.466,0.359c0.199,0.054,0.407,0.025,0.587-0.075l1.273-0.731c0.364-0.209,0.493-0.671,0.289-1.038
						c-0.599-1.08-1.197-1.836-1.833-2.31c-0.645-0.481-1.378-0.78-2.188-0.885C412.682,15.211,411.943,15.3,411.249,15.572z
						 M411.805,17.002c0.154-0.059,0.313-0.056,0.47-0.089c-0.213,0.043-0.421,0.104-0.614,0.197
						C411.718,17.083,411.745,17.026,411.805,17.002z M410.198,19.414c0-0.026,0.004-0.051,0.004-0.076
						c0.002,0.043,0.008,0.086,0.012,0.133C410.214,19.453,410.198,19.434,410.198,19.414z M410.611,20.869
						c-0.016-0.024-0.007-0.046-0.021-0.071c0.054,0.095,0.096,0.171,0.147,0.263C410.68,20.982,410.635,20.913,410.611,20.869z
						 M413.966,24.57c0.292,0.353,0.49,0.662,0.662,0.959C414.456,25.23,414.236,24.913,413.966,24.57z M408.685,28.197
						c0.097,0.162,0.189,0.333,0.292,0.476C408.877,28.528,408.781,28.365,408.685,28.197z M415.13,27.611
						c0.016-0.121,0.025-0.244,0.025-0.367c0-0.51-0.143-1.027-0.413-1.542c0.016,0.025,0.048,0.061,0.06,0.086
						c0.245,0.514,0.367,0.997,0.367,1.463c0,0.113-0.008,0.224-0.02,0.335c-0.063,0.495-0.272,0.915-0.555,1.302
						C414.854,28.493,415.07,28.079,415.13,27.611z M414.107,29.413c-0.068,0.06-0.103,0.137-0.181,0.193
						c-0.048,0.038-0.114,0.022-0.166,0.057C413.879,29.58,414.005,29.509,414.107,29.413z"/>
				</g>
				<g>
					<path fill="#2A76A7" enable-background="new    " d="M430.829,21.367l0.435-1.324l7.498,2.44l-0.433,1.325l-3.049-0.992
						l-4.026,12.303l-1.393-0.453l4.026-12.303L430.829,21.367z"/>
					<path fill="#2A76A7" d="M430.914,19.359c-0.184,0.091-0.322,0.251-0.385,0.445l-0.434,1.324
						c-0.023,0.079-0.037,0.161-0.037,0.238c0,0.324,0.205,0.624,0.531,0.73c0,0,1.48,0.481,2.326,0.758
						c-0.422,1.291-3.79,11.572-3.79,11.572c-0.023,0.078-0.035,0.159-0.035,0.239c0,0.12,0.027,0.238,0.084,0.348
						c0.09,0.181,0.253,0.319,0.445,0.382l1.394,0.453c0.406,0.13,0.839-0.089,0.972-0.492c0,0,3.364-10.281,3.789-11.572
						c0.846,0.274,2.317,0.752,2.317,0.752c0.403,0.13,0.84-0.088,0.972-0.491l0.434-1.325c0.129-0.404-0.091-0.837-0.494-0.969
						l-7.502-2.44C431.309,19.249,431.095,19.265,430.914,19.359z M434.658,22.363c0-0.237-0.202-0.39-0.392-0.534
						c0.445,0.144,0.461,0.148,0.909,0.294c-0.232,0.042-0.435,0.174-0.542,0.393C434.643,22.465,434.658,22.414,434.658,22.363z"/>
				</g>
				<g>
					<path fill="#2A76A7" enable-background="new    " d="M456.56,30.337c1.896,1.072,3.124,2.599,3.681,4.582
						c0.556,1.982,0.313,3.896-0.738,5.74c-1.041,1.827-2.557,3.015-4.559,3.565c-1.995,0.552-3.912,0.309-5.741-0.726
						c-1.857-1.05-3.061-2.57-3.614-4.558c-0.557-1.989-0.322-3.883,0.704-5.68c0.68-1.2,1.604-2.146,2.768-2.839
						c1.166-0.694,2.414-1.047,3.747-1.058S455.392,29.677,456.56,30.337z M455.924,31.591c-0.923-0.522-1.935-0.777-3.039-0.765
						c-1.101,0.012-2.115,0.294-3.045,0.844c-0.927,0.551-1.68,1.326-2.248,2.326c-0.844,1.482-1.041,3.025-0.593,4.627
						c0.448,1.603,1.399,2.814,2.85,3.636c0.97,0.549,2.001,0.822,3.094,0.821c1.093-0.003,2.101-0.28,3.026-0.833
						c0.927-0.553,1.674-1.327,2.243-2.322c0.563-0.989,0.839-2.014,0.833-3.075c-0.006-1.062-0.294-2.07-0.857-3.027
						C457.619,32.868,456.866,32.125,455.924,31.591z"/>
					<path fill="#2A76A7" d="M452.8,28.595c-1.468,0.013-2.858,0.406-4.137,1.167c-1.272,0.759-2.299,1.809-3.043,3.12
						c-1.125,1.971-1.387,4.08-0.776,6.264c0.608,2.183,1.944,3.871,3.976,5.02c2.011,1.135,4.141,1.403,6.332,0.798
						c2.19-0.604,3.882-1.925,5.019-3.925c1.149-2.019,1.424-4.147,0.813-6.327c-0.614-2.174-1.974-3.871-4.042-5.042l0,0
						C455.656,28.943,454.266,28.583,452.8,28.595z M449.581,42.83c-1.686-0.956-2.75-2.295-3.254-4.096
						c-0.502-1.8-0.294-3.467,0.633-5.094c0.614-1.077,1.45-1.938,2.495-2.561c1.037-0.619,2.169-0.938,3.36-0.949
						c1.189-0.009,2.32,0.285,3.365,0.875c1.727,0.978,2.813,2.326,3.319,4.121c0.174,0.625,0.261,1.236,0.261,1.838
						c0,1.128-0.307,2.225-0.929,3.314c-0.942,1.658-2.282,2.707-4.094,3.204C452.931,43.984,451.245,43.77,449.581,42.83z"/>
					<path fill="#2A76A7" d="M452.877,30.058c-1.231,0.014-2.387,0.334-3.432,0.952c-1.041,0.618-1.89,1.496-2.521,2.608
						c-0.948,1.659-1.171,3.412-0.668,5.211c0.502,1.797,1.583,3.175,3.213,4.098c1.081,0.613,2.248,0.922,3.474,0.92
						c1.23-0.003,2.383-0.32,3.424-0.942c1.035-0.619,1.881-1.493,2.513-2.599c0.629-1.104,0.942-2.269,0.937-3.462
						c-0.009-1.19-0.331-2.337-0.966-3.41c-0.632-1.069-1.489-1.914-2.543-2.512c0,0,0,0-0.004-0.001
						C455.262,30.335,454.109,30.044,452.877,30.058z M450.231,41.593c-1.282-0.725-2.095-1.764-2.492-3.177
						c-0.395-1.41-0.223-2.731,0.524-4.041c0.498-0.877,1.161-1.565,1.97-2.045c0.807-0.479,1.703-0.727,2.661-0.737
						c0.972-0.01,1.838,0.208,2.65,0.665c0.827,0.473,1.478,1.112,1.978,1.957c0.499,0.846,0.746,1.71,0.752,2.64
						c0,0.01,0,0.019,0,0.03c0,0.923-0.24,1.795-0.734,2.664c-0.5,0.872-1.162,1.56-1.965,2.042
						c-0.813,0.482-1.673,0.72-2.637,0.723C451.974,42.314,451.089,42.079,450.231,41.593z"/>
				</g>
				<g>
					<path fill="#2A76A7" enable-background="new    " d="M481.958,53.731l-1.424-0.14c0.103-1.023-0.024-1.984-0.376-2.887
						c-0.35-0.905-0.908-1.714-1.673-2.431c-0.837-0.781-1.803-1.307-2.893-1.573c-1.089-0.268-2.151-0.247-3.178,0.061
						c-1.029,0.31-1.938,0.885-2.732,1.729c-1.201,1.275-1.767,2.748-1.691,4.423c0.073,1.673,0.779,3.135,2.116,4.385
						c1.469,1.374,3.238,1.95,5.305,1.728l0.241,1.401c-1.149,0.174-2.284,0.077-3.41-0.292c-1.122-0.371-2.167-1.005-3.132-1.907
						c-1.837-1.718-2.708-3.683-2.625-5.895c0.082-1.856,0.808-3.515,2.177-4.973c1.44-1.528,3.192-2.313,5.254-2.35
						c2.061-0.036,3.902,0.703,5.522,2.218c0.98,0.917,1.682,1.937,2.108,3.063C481.973,51.417,482.11,52.561,481.958,53.731z"/>
					<path fill="#2A76A7" d="M473.901,44.243c-2.266,0.042-4.219,0.914-5.801,2.591c-1.494,1.592-2.294,3.431-2.384,5.467
						c-0.094,2.436,0.872,4.618,2.867,6.486c1.042,0.974,2.191,1.671,3.419,2.076c1.234,0.406,2.501,0.514,3.765,0.322
						c0.204-0.03,0.388-0.142,0.509-0.31c0.12-0.167,0.172-0.374,0.136-0.578l-0.238-1.401c-0.069-0.401-0.439-0.678-0.843-0.634
						c-1.853,0.198-3.388-0.3-4.697-1.524c-1.194-1.119-1.809-2.381-1.872-3.859c-0.066-1.471,0.419-2.735,1.48-3.866
						c0.707-0.75,1.49-1.247,2.396-1.519c0.887-0.265,1.819-0.283,2.771-0.051c0.954,0.234,1.812,0.702,2.549,1.388
						c0.677,0.635,1.177,1.358,1.481,2.148c0.307,0.788,0.418,1.641,0.328,2.533c-0.021,0.202,0.041,0.406,0.171,0.564
						c0.129,0.157,0.316,0.256,0.521,0.278l1.424,0.139c0.412,0.041,0.785-0.255,0.839-0.667c0.169-1.285,0.016-2.567-0.455-3.807
						c-0.466-1.233-1.239-2.36-2.298-3.353C478.202,45.02,476.162,44.204,473.901,44.243z M471.681,46.259
						c-0.201,0.082-0.397,0.171-0.593,0.271C471.281,46.43,471.479,46.337,471.681,46.259z M476.598,46.271
						c0.016,0.006,0.03,0.012,0.048,0.018C476.628,46.283,476.613,46.277,476.598,46.271z M467.257,52.365
						c0.004-0.073,0.043-0.132,0.046-0.205c-0.003,0.086-0.042,0.16-0.046,0.246C467.257,52.392,467.257,52.378,467.257,52.365z
						 M479.641,48.627c0.271,0.331,0.506,0.675,0.707,1.03C480.148,49.296,479.905,48.958,479.641,48.627z"/>
				</g>
				<g>
					<path fill="#2A76A7" enable-background="new    " d="M494.698,65.425l0.792,1.232l-4.55,2.901l7.646,1.921l1.047,1.633
						l-9.166-2.337l-2.667,10.522l-1.027-1.602l2.247-8.911l-5.655,3.605l-0.79-1.233L494.698,65.425z"/>
					<path fill="#2A76A7" d="M494.283,64.778l-12.123,7.733c-0.359,0.229-0.465,0.704-0.233,1.061l0.792,1.233
						c0.229,0.357,0.704,0.461,1.063,0.232c0,0,2.365-1.509,4.018-2.561c-0.591,2.339-1.772,7.034-1.772,7.034
						c-0.016,0.061-0.023,0.124-0.023,0.187c0,0.146,0.041,0.29,0.122,0.414l1.026,1.603c0.165,0.257,0.47,0.393,0.773,0.342
						c0.305-0.047,0.548-0.272,0.623-0.569c0,0,2.151-8.486,2.478-9.776c1.263,0.323,8.419,2.146,8.419,2.146
						c0.308,0.078,0.626-0.04,0.815-0.294c0.097-0.133,0.145-0.292,0.145-0.45c0-0.144-0.039-0.288-0.12-0.414l-1.05-1.633
						c-0.106-0.165-0.271-0.284-0.46-0.33c0,0-3.847-0.967-5.917-1.488c1.349-0.859,3.048-1.943,3.048-1.943
						c0.172-0.11,0.292-0.284,0.338-0.482c0.012-0.054,0.018-0.11,0.018-0.166c0-0.146-0.042-0.289-0.124-0.414l-0.791-1.232
						c-0.108-0.171-0.282-0.292-0.481-0.336C494.663,64.631,494.455,64.667,494.283,64.778z M490.452,69.045
						c-0.146,0.143-0.282,0.308-0.282,0.513c0,0.041,0.004,0.083,0.012,0.123c0.024,0.161,0.193,0.217,0.301,0.328
						c-0.141-0.002-0.285,0.033-0.409,0.106c-0.178,0.104-0.303,0.275-0.352,0.473l-0.013,0.04c-0.041-0.175-0.087-0.357-0.24-0.468
						c-0.184-0.132-0.405-0.144-0.617-0.094C489.649,69.557,489.694,69.529,490.452,69.045z"/>
				</g>
			</g>
			<ellipse fill="#2A76A7" cx="290.979" cy="108.938" rx="2.525" ry="2.517"/>
			<ellipse fill="#2A76A7" cx="501.527" cy="100.757" rx="2.525" ry="2.517"/>
		</g>
		<g>
			<path fill="#FFDE4A" d="M456.015,115.17l-5.137,36.859c0,0-5.649,2.559-5.649,0.512l5.135-36.348L456.015,115.17z"/>
			<path fill="#FFDE4A" d="M462.177,85.477c0,0,0,3.584-4.621,3.584c0,0-2.57-0.512-1.541-6.656l3.082-23.548L465.771,65
				L462.177,85.477z"/>
			<path fill="#FFDE4A" d="M409.791,40.938c0,0-3.08-4.607-8.217-3.582c0,0-4.108-0.513-1.542,6.655l15.408,48.122h6.678
				L409.791,40.938z"/>
			<path fill="#FFDE4A" d="M430.848,130.528c0,0-3.593-4.607-4.622,1.536l4.622,18.941c0,0,3.082,6.145,4.623-0.512L430.848,130.528
				z"/>
			<path fill="#FFDE4A" d="M354.837,52.203c0,0-2.054-4.607-6.676-1.024c0,0-5.648,3.583,0,7.679l24.652,35.323
				c0,0,2.567,3.072,6.677,1.024c0,0,3.595-1.535-1.541-8.191L354.837,52.203z"/>
			<path fill="#FFDE4A" d="M410.818,139.744c0,0-6.163-0.512-4.623,3.071l17.464,23.548l3.592-0.511L410.818,139.744z"/>
			<path fill="#FFDE4A" d="M333.267,114.657l-21.056-12.286c0,0-3.083-1.534-3.596,3.584c0,0-2.054,5.119,2.055,6.655l24.138,12.798
				L333.267,114.657z"/>
			<path fill="#FFDE4A" d="M390.788,151.517c0,0-6.163-1.534-4.107,3.585l25.679,14.333c0,0,5.651-0.002,1.54-4.096L390.788,151.517
				z"/>
			<path fill="#FFDE4A" d="M317.347,175.067l4.107,8.19l19.516,0.512c0,0,5.137-4.608-0.513-7.679L317.347,175.067z"/>
			<path fill="#FFDE4A" d="M390.274,178.65c0,0-7.704-0.002,0,5.119l21.569-0.512c0,0,5.652-1.024-0.512-4.096L390.274,178.65z"/>
		</g>
		<path fill="#FFFFFF" d="M391.815,224.724c0,0-20.899-2.371-33.739-10.049c0,0-13.063-5.388-13.51-8.381
			c0,0,2.054-28.156,2.054-35.323c0,0,0-24.062-3.081-33.788c0,0-5.651-16.894-6.678-19.965c0,0-3.593-12.799,8.218-19.454
			c0,0,7.704-4.606,20.03-1.535c0,0,25.167,5.12,41.086,2.049c0,0,23.626-4.095,29.275-6.144c0,0,8.732-2.048,13.866-0.513
			c0,0,13.867,2.048,19.004,0c0,0,9.759-1.022,10.271,5.12c0,0,3.596,4.607-4.623,7.679c0,0-28.248,9.725-34.922,13.31
			c0,0-26.193,14.847-29.789,16.382c0,0-11.815,7.68-15.922,8.704c0,0-9.336,1.791-10.785,15.869c0,0-1.541,16.383,1.54,30.716
			c0,0,6.678,26.62,7.705,29.692C391.815,219.092,394.148,225.376,391.815,224.724z"/>
		<path fill="#2A76A7" d="M379.49,101.859c0,0,21.573,4.096,48.277-3.071c0,0-9.76,9.214-33.382,7.679
			C394.384,106.467,383.084,107.491,379.49,101.859z"/>
		<path fill="#2A76A7" d="M346.106,125.921c0,0,5.685,39.335,4.303,47.137l0.463,22.488
			C350.872,195.546,362.542,151.006,346.106,125.921z"/>
	</g>
</g>
</svg>
