<?xml version="1.0" encoding="utf-8"?>
<!-- Generator: Adobe Illustrator 24.0.2, SVG Export Plug-In . SVG Version: 6.00 Build 0)  -->
<svg version="1.1" id="Layer_1" xmlns="http://www.w3.org/2000/svg" xmlns:xlink="http://www.w3.org/1999/xlink" x="0px" y="0px"
	 viewBox="0 0 500 300" style="enable-background:new 0 0 500 300;" xml:space="preserve">
<style type="text/css">
	.st0{fill:#FFFFFF;stroke:#FFFFFF;stroke-miterlimit:10;}
	.st1{fill:#FFFFFF;}
	.st2{font-family:'MyriadPro-Regular';}
	.st3{font-size:31.5851px;}
</style>
<path class="st0" d="M333.87,149.7c0.39,13.82,11.15,27.84,25.45,31.52c15.64,4.02,28.32-0.1,38.3-12.76
	c1.11-1.41,3.11-2.75,4.82-2.92c4.26-0.42,8.6-0.14,12.96-0.14c-2.14,16.06-22.66,34.21-51.88,31.48
	c-28.72-2.68-49.29-28.22-46.45-59.14c2.85-31.04,27.19-50.83,58.33-47.43c28.22,3.09,47.97,29.54,43.84,59.39
	C390.99,149.7,362.66,149.7,333.87,149.7z M334.57,134.57c23.01,0,45.54,0,68.12,0c-2.14-18.14-17.51-31.07-35.35-29.98
	C348.94,105.7,334.45,118.71,334.57,134.57z"/>
<path class="st0" d="M147.83,143.19c-5.83,6.08-11.25,11.43-16.25,17.15c-1.43,1.63-2.26,4.29-2.32,6.51
	c-0.25,9.24-0.11,18.48-0.11,28.23c-5.38,0-10.38,0-15.83,0c0-48.1,0-96.15,0-144.66c5.21,0,10.23,0,15.79,0
	c0,30.33,0,60.29,0,89.75c7.89-7.35,15.92-14.55,23.6-22.09c7.93-7.78,15.44-15.99,23.33-23.81c1.44-1.43,3.75-2.61,5.74-2.74
	c5.73-0.36,11.49-0.13,17.47-0.13c-13.52,13.7-26.78,27.14-40.27,40.81c15.06,21.16,29.59,41.56,44.17,62.04
	c-10.78,3.94-18.53,1.63-24.65-7.12C168.51,172.8,158.5,158.48,147.83,143.19z"/>
<path class="st0" d="M218.23,152.61c13.51,0,26.61,0,40.32,0c0-14.08,0-27.56,0-40.91c18.05-3.32,39.08,14.46,41.24,33.8
	c3.36,30.14-19.59,46.3-37.38,47.53C235.81,194.87,217.14,172.38,218.23,152.61z"/>
<path class="st0" d="M293.93,105.07c-6.92,0-13.47,0-20.02,0c-6.58,0-13.16,0-20.61,0c0,13.97,0,27.61,0,41.1
	c-15.24,2.56-38.69-11.11-41.42-35.67c-2.51-22.57,14.14-43.69,35.66-45.46C273.41,62.91,292.73,79.15,293.93,105.07z"/>
<path class="st0" d="M74.35,62.92C51.71,64.71,49.16,73.7,50.6,91.38c5.61,0,11.33,0.38,16.98-0.11c5.53-0.47,7.59,1.5,6.83,6.9
	c-0.31,2.19-0.24,4.43-0.38,7.41c-4.33,0-8.18,0-12.02,0c-3.67,0-7.35,0-11.66,0c0,30.01,0,59.52,0,89.51c-5.45,0-10.26,0-16.14,0
	c0-29.51,0-59.15,0-89.35c-6.31,0-11.6,0-17.37,0c0-4.92,0-9.28,0-14.21c5.52,0,10.79,0,16.64,0c0.46-5.52,0.77-10.56,1.32-15.58
	c1.81-16.6,20.22-30.49,36.56-27.41c1.19,0.22,2.7,2.32,2.87,3.68C74.62,55.65,74.35,59.15,74.35,62.92z"/>
<path class="st0" d="M431.12,91.62c5.29,0,9.97,0,15.3,0c0,6.89,0,13.59,0,20.29c9.32-14.27,21.61-22.1,39.44-21.8
	c0,2.53-0.01,4.55,0,6.56c0.07,8.61,0,8.27-8.59,9.99c-12.96,2.6-21.82,10.91-26.19,22.89c-2.75,7.54-3.7,15.98-4.07,24.08
	c-0.63,13.71-0.17,27.48-0.17,41.58c-5.56,0-10.4,0-15.72,0C431.12,160.83,431.12,126.56,431.12,91.62z"/>
<path class="st0" d="M86.26,91.62c5.34,0,10.03,0,15.24,0c0,34.37,0,68.64,0,103.44c-4.75,0-9.75,0-15.24,0
	C86.26,160.82,86.26,126.57,86.26,91.62z"/>
<path class="st0" d="M102.31,79.33c-1.92,0.25-3.1,0.53-4.28,0.54c-4.06,0.06-8.13,0.02-12.63,0.02c0-6.94,0-13.39,0-20.76
	c4.62,0,9.27-0.18,13.88,0.14c1.07,0.07,2.85,1.82,2.9,2.87C102.46,67.81,102.31,73.5,102.31,79.33z"/>
<g>
	<path class="st1" d="M427.1,223.28c21.17,0,42.34,0,63.5,0c0.19,0.5,0.38,0.99,0.57,1.49c-1.22,0.68-2.45,1.94-3.67,1.95
		c-19.09,0.12-38.18,0.12-57.28-0.01c-1.23-0.01-2.45-1.3-3.68-1.99C426.72,224.24,426.91,223.76,427.1,223.28z"/>
	<path class="st1" d="M50.1,223.28c21.17,0,42.34,0,63.5,0c0.19,0.5,0.38,0.99,0.57,1.49c-1.22,0.68-2.45,1.94-3.67,1.95
		c-19.09,0.12-38.19,0.12-57.28-0.01c-1.23-0.01-2.45-1.3-3.68-1.99C49.72,224.24,49.91,223.76,50.1,223.28z"/>
	<text transform="matrix(1 0 0 1 138.267 234.3122)" class="st1 st2 st3">FIX YOUR DEVICE</text>
</g>
</svg>
